<svg xmlns="http://www.w3.org/2000/svg" viewBox="0 0 200 200" width="200" height="200" role="img" aria-label="TruthPrints"><defs></defs><rect x="14" y="14" width="172" height="172" rx="20" fill="none" stroke="#BE9A52" stroke-width="3"/><rect x="23" y="23" width="154" height="154" rx="13" fill="none" stroke="#BE9A52" stroke-width="1.1" opacity="0.55"/><path d="M14 95 L19 100 L14 105 L9 100 Z" fill="#BE9A52"/><path d="M186 95 L191 100 L186 105 L181 100 Z" fill="#BE9A52"/><path d="M100 9 L105 14 L100 19 L95 14 Z" fill="#BE9A52"/><path d="M100 181 L105 186 L100 191 L95 186 Z" fill="#BE9A52"/><path d="M100 24 C103.0 31.200000000000003 105.1 36.6 102.16 41.1 C100.78 42.54 99.22 42.54 97.84 41.1 C94.9 36.6 97.0 31.200000000000003 100 24 Z" fill="#BE9A52"/><g fill="#BE9A52"><path d="M32 40 L168 40 L168 60 L158 60 C155 56 153 54 149 53 L108 53 L92 53 L51 53 C47 54 45 56 42 60 L32 60 Z"/><path d="M92.5 52 L107.5 52 L106.5 158 C108.5 165 112 169 120 171 L130 171 L130 175 L70 175 L70 171 L80 171 C88 169 91.5 165 93.5 158 L93.5 52 Z"/></g></svg>