<svg xmlns="http://www.w3.org/2000/svg" viewBox="0 0 200 200" width="200" height="200" role="img" aria-label="TruthPrints">
<defs>
  <linearGradient id="g" x1="100" y1="6" x2="100" y2="194" gradientUnits="userSpaceOnUse">
    <stop offset="0" stop-color="#F3DDA0"/>
    <stop offset="0.5" stop-color="#C9A24E"/>
    <stop offset="1" stop-color="#9A7430"/>
  </linearGradient>
  <radialGradient id="glow" cx="100" cy="30" r="46" gradientUnits="userSpaceOnUse">
    <stop offset="0" stop-color="#F6E4B0" stop-opacity="0.55"/>
    <stop offset="1" stop-color="#F6E4B0" stop-opacity="0"/>
  </radialGradient>
</defs>
<circle cx="100" cy="30" r="44" fill="url(#glow)"/><path d="M100 8 C106.0 18.0 112.0 27.0 105.0 35.0 C102.0 39.0 98.0 39.0 95.0 35.0 C88.0 27.0 94.0 18.0 100 8 Z" fill="url(#g)"/><ellipse cx="100" cy="22" rx="3" ry="6" fill="#FBEFCF" opacity="0.9"/><g fill="url(#g)"><path d="M24 41 L176 41 L176 67 L162 67 C160 61 159 57 154 56 L46 56 C41 57 40 61 38 67 L24 67 Z"/><path d="M92 56 L108 56 L107 150 C109 156 112 160 120 162 L132 162 L132 170 L68 170 L68 162 L80 162 C88 160 91 156 93 150 L93 56 Z"/></g></svg>