<svg xmlns="http://www.w3.org/2000/svg" viewBox="0 0 200 200" width="200" height="200" role="img" aria-label="TruthPrints">
<defs>
  <linearGradient id="g" x1="100" y1="6" x2="100" y2="194" gradientUnits="userSpaceOnUse">
    <stop offset="0" stop-color="#F3DDA0"/>
    <stop offset="0.5" stop-color="#C9A24E"/>
    <stop offset="1" stop-color="#9A7430"/>
  </linearGradient>
  <radialGradient id="glow" cx="100" cy="30" r="46" gradientUnits="userSpaceOnUse">
    <stop offset="0" stop-color="#F6E4B0" stop-opacity="0.55"/>
    <stop offset="1" stop-color="#F6E4B0" stop-opacity="0"/>
  </radialGradient>
</defs>
<mask id="cut"><rect x="0" y="0" width="200" height="200" fill="white"/><path d="M100 48 C104.4 55.333333333333336 108.8 61.93333333333334 103.66666666666667 67.8 C101.46666666666667 70.73333333333333 98.53333333333333 70.73333333333333 96.33333333333333 67.8 C91.2 61.93333333333334 95.6 55.333333333333336 100 48 Z" fill="black"/></mask><circle cx="100" cy="58" r="34" fill="url(#glow)"/><g fill="url(#g)" mask="url(#cut)"><path d="M24 41 L176 41 L176 67 L162 67 C160 61 159 57 154 56 L46 56 C41 57 40 61 38 67 L24 67 Z"/><path d="M92 56 L108 56 L107 150 C109 156 112 160 120 162 L132 162 L132 170 L68 170 L68 162 L80 162 C88 160 91 156 93 150 L93 56 Z"/></g></svg>