<svg xmlns="http://www.w3.org/2000/svg" viewBox="0 0 64 64" fill="none">
  <defs>
    <linearGradient id="tpgold" x1="32" y1="12" x2="32" y2="52" gradientUnits="userSpaceOnUse">
      <stop offset="0" stop-color="#E8C97A"/>
      <stop offset=".55" stop-color="#C9A052"/>
      <stop offset="1" stop-color="#8A6A2E"/>
    </linearGradient>
    <radialGradient id="tpcore" cx=".5" cy=".68" r=".55">
      <stop offset="0" stop-color="#FFF3D6"/>
      <stop offset=".6" stop-color="#F0C97E"/>
      <stop offset="1" stop-color="#C9A052" stop-opacity="0"/>
    </radialGradient>
  </defs>
  <!-- thin ring -->
  <circle cx="32" cy="32" r="29" stroke="url(#tpgold)" stroke-width="1.4"/>
  <!-- flame: outer body -->
  <path d="M32 13.5
           C 33.2 20.5 39.5 24.4 41.2 30.2
           C 42.9 36.1 40.6 42.4 35.8 45.6
           C 37.0 43.2 37.2 40.5 36.0 38.2
           C 34.9 36.1 32.9 34.8 32.0 32.4
           C 31.1 34.8 29.1 36.1 28.0 38.2
           C 26.8 40.5 27.0 43.2 28.2 45.6
           C 23.4 42.4 21.1 36.1 22.8 30.2
           C 24.5 24.4 30.8 20.5 32 13.5 Z"
        fill="url(#tpgold)"/>
  <!-- flame: luminous core -->
  <path d="M32 30
           C 33.4 33.6 36.1 35.2 36.6 38.6
           C 37.1 41.9 35.1 45.0 32 46.2
           C 28.9 45.0 26.9 41.9 27.4 38.6
           C 27.9 35.2 30.6 33.6 32 30 Z"
        fill="url(#tpcore)"/>
  <!-- baseline: the open book hint -->
  <path d="M20 50.5 Q 26 48.6 32 50.5 Q 38 48.6 44 50.5" stroke="url(#tpgold)" stroke-width="1.4" stroke-linecap="round"/>
</svg>
